<?xml version="1.0" ?><svg fill="none" height="24" viewBox="0 0 24 24" width="24" xmlns="http://www.w3.org/2000/svg"><path clip-rule="evenodd" d="M5 5C3.34315 5 2 6.34315 2 8V16C2 17.6569 3.34315 19 5 19H14.5C16.1569 19 17.5 17.6569 17.5 16V15.5388L20.5939 16.9138C20.9032 17.0513 21.2611 17.0229 21.5449 16.8385C21.8287 16.654 22 16.3385 22 16V8C22 7.66149 21.8287 7.34596 21.5449 7.16151C21.2611 6.97705 20.9032 6.94871 20.5939 7.08619L17.5 8.46124V8C17.5 6.34315 16.1569 5 14.5 5H5ZM9 11V9H11V11H13V13H11V15H9V13H7V11H9Z" fill="black" fill-rule="evenodd"/></svg>